<svg width="18" height="18" viewBox="0 0 18 18" fill="none" xmlns="http://www.w3.org/2000/svg">
<path fill-rule="evenodd" clip-rule="evenodd" d="M15.2 16.0405H10.0625C9.76925 16.0405 9.53125 15.8025 9.53125 15.5093C9.53125 15.216 9.76925 14.978 10.0625 14.978H15.2C15.4933 14.978 15.7313 15.216 15.7313 15.5093C15.7313 15.8025 15.4933 16.0405 15.2 16.0405Z" fill="black"/>
<mask id="mask0_1509_55808" style="mask-type:luminance" maskUnits="userSpaceOnUse" x="1" y="2" width="14" height="15">
<path fill-rule="evenodd" clip-rule="evenodd" d="M1.91797 2.625H14.0876V16.0405H1.91797V2.625Z" fill="white"/>
</mask>
<g mask="url(#mask0_1509_55808)">
<path fill-rule="evenodd" clip-rule="evenodd" d="M9.78775 4.05345L3.11879 12.3941C2.99766 12.5457 2.95304 12.7412 2.99766 12.9289L3.48004 14.9724L5.63266 14.9455C5.83737 14.9434 6.0265 14.852 6.15187 14.6962C8.43058 11.8451 12.7748 6.40937 12.898 6.25C13.0142 6.06158 13.0595 5.79525 12.9986 5.53883C12.9363 5.27604 12.7727 5.05291 12.5368 4.91054C12.4865 4.87583 11.293 3.94933 11.2561 3.92029C10.807 3.56045 10.1518 3.62279 9.78775 4.05345ZM3.0607 16.0406C2.81491 16.0406 2.601 15.872 2.54362 15.6319L1.9635 13.1732C1.84379 12.664 1.96279 12.1384 2.28933 11.7304L8.96183 3.38479C8.96466 3.38196 8.96679 3.37841 8.96962 3.37558C9.70133 2.50079 11.0245 2.37187 11.917 3.088C11.9524 3.11562 13.1375 4.03646 13.1375 4.03646C13.5681 4.29287 13.9046 4.75116 14.0321 5.29375C14.1589 5.83066 14.0668 6.38458 13.7714 6.85279C13.7495 6.8875 13.7303 6.91725 6.98133 15.3606C6.65621 15.7657 6.16887 16.0016 5.64541 16.008L3.06779 16.0406H3.0607Z" fill="black"/>
</g>
<path fill-rule="evenodd" clip-rule="evenodd" d="M11.9907 8.77656C11.8774 8.77656 11.764 8.74043 11.667 8.66677L7.80515 5.70027C7.57282 5.52177 7.5289 5.18885 7.7074 4.9551C7.88661 4.72277 8.21953 4.67956 8.45257 4.85806L12.3151 7.82385C12.5474 8.00235 12.5914 8.33597 12.4122 8.56902C12.308 8.70502 12.1501 8.77656 11.9907 8.77656Z" fill="black"/>
</svg>
