<svg width="10" height="10" viewBox="0 0 10 10" fill="none" xmlns="http://www.w3.org/2000/svg">
<g id="arrows">
<g id="arrow-up">
<path id="Vector" d="M1.03997 4.33332C1.12771 4.33282 1.21468 4.34963 1.29591 4.38281C1.37713 4.41598 1.45101 4.46487 1.51331 4.52666L4.99997 8.00666L8.48664 4.51999C8.5464 4.4502 8.61995 4.39352 8.70266 4.3535C8.78537 4.31349 8.87546 4.291 8.96727 4.28746C9.05908 4.28391 9.15064 4.29938 9.23619 4.3329C9.32174 4.36641 9.39944 4.41725 9.46441 4.48222C9.52938 4.54719 9.58021 4.62489 9.61373 4.71044C9.64725 4.79599 9.66272 4.88754 9.65917 4.97936C9.65562 5.07117 9.63314 5.16126 9.59312 5.24397C9.55311 5.32668 9.49643 5.40022 9.42664 5.45999L5.47331 9.41999C5.41133 9.48247 5.3376 9.53207 5.25636 9.56592C5.17512 9.59976 5.08798 9.61719 4.99997 9.61719C4.91196 9.61719 4.82483 9.59976 4.74359 9.56592C4.66235 9.53207 4.58861 9.48247 4.52664 9.41999L0.573305 5.45999C0.449138 5.33508 0.379444 5.16611 0.379444 4.98999C0.379444 4.81387 0.449138 4.6449 0.573305 4.51999C0.69855 4.39927 0.866019 4.33228 1.03997 4.33332Z" fill="#E60019"/>
<path id="Vector_2" opacity="0.3" d="M4.99984 0.333281C5.17665 0.333281 5.34622 0.403519 5.47124 0.528543C5.59627 0.653566 5.6665 0.823136 5.6665 0.999948L5.6665 8.94661C5.6665 9.12343 5.59627 9.29299 5.47124 9.41802C5.34622 9.54304 5.17665 9.61328 4.99984 9.61328C4.82303 9.61328 4.65346 9.54304 4.52843 9.41802C4.40341 9.29299 4.33317 9.12343 4.33317 8.94661L4.33317 0.999948C4.33317 0.823136 4.40341 0.653566 4.52843 0.528543C4.65346 0.403519 4.82303 0.333281 4.99984 0.333281Z" fill="#E60019"/>
</g>
</g>
</svg>
