 <svg
                  xmlns="http://www.w3.org/2000/svg"
                  width="24"
                  height="24"
                  viewBox="0 0 24 24"
                  fill="none"
                >
                  <g clip-path="url(#clip0_2822_17047)">
                    <path
                      d="M23.3296 0.928178C23.2781 0.81099 23.1843 0.71724 23.0718 0.670365C23.0109 0.64224 17.0109 -1.87963 12.0749 3.05162C11.1328 3.9938 10.2234 5.10474 9.38901 6.27662L8.24995 6.01412C6.52963 5.61568 4.75776 6.12193 3.5062 7.3688L0.398384 10.4813C-0.426616 11.3063 0.103072 12.7079 1.25151 12.7969L5.62963 13.1485C5.43745 13.6594 5.27338 14.161 5.17963 14.4938C5.09526 14.7891 5.10932 15.0938 5.19838 15.3751C4.4062 15.5907 3.68432 15.9844 3.27651 16.3922C2.37651 17.2876 1.57495 21.211 1.42495 21.9891C1.35932 22.3641 1.69213 22.6501 2.01088 22.5751C2.78901 22.4204 6.71245 21.6188 7.60776 20.7235C8.03432 20.2969 8.4187 19.5657 8.62963 18.8016C8.92963 18.8954 9.23432 18.8954 9.51088 18.8157H9.51557C9.84838 18.7219 10.3359 18.5672 10.8562 18.3657L11.2078 22.7438C11.2968 23.8922 12.7031 24.4172 13.5234 23.5969L16.6359 20.4844C17.8828 19.2376 18.3937 17.461 17.9906 15.7407L17.7281 14.6016C18.8999 13.7672 20.0109 12.8579 20.9531 11.9157C25.8843 6.98912 23.3578 0.989115 23.3296 0.928178ZM1.11088 11.1891L4.2187 8.07662C5.22651 7.0688 6.65151 6.66568 8.02495 6.98912L8.77963 7.16255C7.65932 8.84537 6.71245 10.6079 6.02807 12.1735L1.3312 11.7985C1.02651 11.7704 0.895259 11.4001 1.11088 11.1891ZM6.89995 20.0204C6.46401 20.4563 4.30307 21.061 2.55932 21.4454C2.93901 19.6969 3.5437 17.5407 3.98432 17.1047C4.36401 16.7204 5.10463 16.3876 5.82651 16.2563L7.74838 18.1782C7.7437 18.1969 7.7437 18.2157 7.73901 18.2391C7.59838 18.9282 7.2562 19.6641 6.89995 20.0204ZM8.69995 17.7094L6.29057 15.3001C6.14995 15.1594 6.0937 14.9485 6.14526 14.761C6.18745 14.6157 6.26713 14.3438 6.37026 14.0391L9.96088 17.6297C9.74526 17.7047 9.45932 17.7938 9.23901 17.8547C9.05151 17.911 8.84526 17.8547 8.69995 17.7094ZM17.0109 15.9751C17.3296 17.3579 16.9265 18.7782 15.9234 19.7813L12.8109 22.8938C12.5953 23.1094 12.2296 22.9735 12.2015 22.6735L11.8265 17.9766C13.3921 17.2969 15.1546 16.3454 16.8374 15.2251L17.0109 15.9751ZM10.9874 17.2407L6.75463 13.0079C7.94995 10.0876 10.2328 6.30474 12.7781 3.75943C15.6843 0.853178 19.5046 0.41724 22.4812 1.51412C22.8328 2.49849 24.2296 7.22818 20.2359 11.2219C17.6906 13.7672 13.9078 16.0501 10.9874 17.2407Z"
                      fill="black"
                    />
                    <path
                      d="M14.653 4.47188C13.3077 5.81719 13.3077 7.99687 14.653 9.34687C15.9983 10.6922 18.178 10.6922 19.528 9.34687C20.8733 8.00156 20.8733 5.81719 19.528 4.47188C18.178 3.12656 15.9983 3.12656 14.653 4.47188ZM18.8202 8.63906C17.864 9.59531 16.3171 9.59531 15.3608 8.63906C14.4046 7.68281 14.4046 6.13594 15.3608 5.17969C16.3171 4.22344 17.864 4.22344 18.8202 5.17969C19.7718 6.13594 19.7718 7.6875 18.8202 8.63906Z"
                      fill="black"
                    />
                  </g>
                  <defs>
                    <clipPath id="clip0_2822_17047">
                      <rect width="24" height="24" fill="white" />
                    </clipPath>
                  </defs>
                </svg>